<svg width="24" height="24" viewBox="0 0 24 24" fill="none" xmlns="http://www.w3.org/2000/svg">
<path d="M12 22.75C6.07 22.75 1.25 17.93 1.25 12C1.25 6.07 6.07 1.25 12 1.25C12.41 1.25 12.75 1.59 12.75 2C12.75 2.41 12.41 2.75 12 2.75C6.9 2.75 2.75 6.9 2.75 12C2.75 17.1 6.9 21.25 12 21.25C17.1 21.25 21.25 17.1 21.25 12C21.25 11.59 21.59 11.25 22 11.25C22.41 11.25 22.75 11.59 22.75 12C22.75 17.93 17.93 22.75 12 22.75Z" fill="#333132"/>
<path d="M21 7.75H17C16.59 7.75 16.25 7.41 16.25 7V3C16.25 2.59 16.59 2.25 17 2.25C17.41 2.25 17.75 2.59 17.75 3V6.25H21C21.41 6.25 21.75 6.59 21.75 7C21.75 7.41 21.41 7.75 21 7.75Z" fill="#333132"/>
<path d="M17.0014 7.74994C16.8114 7.74994 16.6214 7.67994 16.4714 7.52994C16.1814 7.23994 16.1814 6.75994 16.4714 6.46994L21.4714 1.46994C21.7614 1.17994 22.2414 1.17994 22.5314 1.46994C22.8214 1.75994 22.8214 2.23994 22.5314 2.52994L17.5314 7.52994C17.3814 7.67994 17.1914 7.74994 17.0014 7.74994Z" fill="#333132"/>
<path fill-rule="evenodd" clip-rule="evenodd" d="M11.6071 14.3985C11.7113 14.4924 11.8526 14.545 11.9999 14.545C12.1472 14.545 12.2886 14.4924 12.3928 14.3985C12.4969 14.3048 12.5555 14.1777 12.5555 14.045V10.1008C14.462 10.4185 15.889 12.3544 15.889 14.7692C15.889 14.8828 15.9475 14.9919 16.0517 15.0722C16.1558 15.1526 16.2972 15.1977 16.4444 15.1977C16.5918 15.1977 16.7331 15.1526 16.8372 15.0722C16.9415 14.9919 17 14.8828 17 14.7692C17 11.8034 15.1249 9.51785 12.5555 9.22868V8.04536C12.5555 7.86677 12.4496 7.70177 12.2777 7.61242C12.1059 7.52307 11.894 7.52307 11.7222 7.61242C11.5502 7.70177 11.4443 7.86676 11.4443 8.04536V9.2287C8.87507 9.51794 7 11.8035 7 14.7692C7 14.9223 7.10591 15.0637 7.27774 15.1403C7.44967 15.2169 7.66139 15.2169 7.83333 15.1403C8.00528 15.0637 8.11107 14.9223 8.11107 14.7692C8.11107 12.3545 9.53814 10.4186 11.4443 10.1008V14.045C11.4443 14.1777 11.5029 14.3048 11.6071 14.3985Z" fill="#333132"/>
<path d="M11.6071 14.3985L11.741 14.25L11.7409 14.2499L11.6071 14.3985ZM12.3928 14.3985L12.259 14.2499L12.2589 14.2499L12.3928 14.3985ZM12.5555 10.1008L12.5884 9.90352L12.3555 9.86471V10.1008H12.5555ZM16.0517 15.0722L16.1739 14.9139L16.1739 14.9139L16.0517 15.0722ZM16.4444 15.1977L16.4444 15.3977H16.4444V15.1977ZM16.8372 15.0722L16.7152 14.9138L16.7151 14.9139L16.8372 15.0722ZM12.5555 9.22868H12.3555V9.40744L12.5332 9.42743L12.5555 9.22868ZM12.2777 7.61242L12.1854 7.78986L12.1854 7.78989L12.2777 7.61242ZM11.7222 7.61242L11.8144 7.78989L11.8145 7.78987L11.7222 7.61242ZM11.4443 9.2287L11.4667 9.42745L11.6443 9.40745V9.2287H11.4443ZM7.27774 15.1403L7.19631 15.323L7.19636 15.323L7.27774 15.1403ZM7.83333 15.1403L7.91471 15.323L7.91471 15.323L7.83333 15.1403ZM11.4443 10.1008H11.6443V9.86472L11.4114 9.90355L11.4443 10.1008ZM11.9999 14.345C11.8992 14.345 11.8063 14.3088 11.741 14.25L11.4732 14.5471C11.6162 14.6759 11.8061 14.745 11.9999 14.745V14.345ZM12.2589 14.2499C12.1935 14.3088 12.1006 14.345 11.9999 14.345V14.745C12.1938 14.745 12.3837 14.6759 12.5266 14.5471L12.2589 14.2499ZM12.3555 14.045C12.3555 14.1174 12.3238 14.1916 12.259 14.2499L12.5265 14.5472C12.6701 14.418 12.7555 14.238 12.7555 14.045H12.3555ZM12.3555 10.1008V14.045H12.7555V10.1008H12.3555ZM16.089 14.7692C16.089 12.2852 14.617 10.2416 12.5884 9.90352L12.5226 10.2981C14.307 10.5954 15.689 12.4236 15.689 14.7692H16.089ZM16.1739 14.9139C16.1101 14.8647 16.089 14.8106 16.089 14.7692H15.689C15.689 14.955 15.785 15.1191 15.9295 15.2306L16.1739 14.9139ZM16.4444 14.9977C16.3357 14.9977 16.2388 14.964 16.1739 14.9139L15.9295 15.2306C16.0729 15.3412 16.2586 15.3977 16.4444 15.3977L16.4444 14.9977ZM16.7151 14.9139C16.6501 14.964 16.5532 14.9977 16.4444 14.9977V15.3977C16.6304 15.3977 16.816 15.3412 16.9594 15.2306L16.7151 14.9139ZM16.8 14.7692C16.8 14.8106 16.779 14.8646 16.7152 14.9138L16.9593 15.2307C17.1041 15.1191 17.2 14.9551 17.2 14.7692H16.8ZM12.5332 9.42743C14.984 9.70327 16.8 11.8868 16.8 14.7692H17.2C17.2 11.72 15.2657 9.33244 12.5779 9.02994L12.5332 9.42743ZM12.3555 8.04536V9.22868H12.7555V8.04536H12.3555ZM12.1854 7.78989C12.2982 7.84847 12.3555 7.94898 12.3555 8.04536H12.7555C12.7555 7.78455 12.601 7.55507 12.3699 7.43495L12.1854 7.78989ZM11.8145 7.78987C11.9285 7.73059 12.0714 7.73059 12.1854 7.78986L12.3699 7.43498C12.1403 7.31555 11.8596 7.31556 11.6299 7.43498L11.8145 7.78987ZM11.6443 8.04536C11.6443 7.94898 11.7017 7.84847 11.8144 7.78989L11.63 7.43495C11.3988 7.55507 11.2443 7.78455 11.2443 8.04536H11.6443ZM11.6443 9.2287V8.04536H11.2443V9.2287H11.6443ZM7.2 14.7692C7.2 11.8869 9.01589 9.70335 11.4667 9.42745L11.422 9.02996C8.73425 9.33253 6.8 11.7201 6.8 14.7692H7.2ZM7.35916 14.9576C7.23907 14.9041 7.2 14.8232 7.2 14.7692H6.8C6.8 15.0214 6.97275 15.2233 7.19631 15.323L7.35916 14.9576ZM7.75196 14.9576C7.63181 15.0111 7.47925 15.0111 7.35912 14.9576L7.19636 15.323C7.42009 15.4227 7.69097 15.4227 7.91471 15.323L7.75196 14.9576ZM7.91107 14.7692C7.91107 14.8233 7.87206 14.9041 7.75195 14.9576L7.91471 15.323C8.1385 15.2233 8.31107 15.0213 8.31107 14.7692H7.91107ZM11.4114 9.90355C9.38312 10.2417 7.91107 12.2853 7.91107 14.7692H8.31107C8.31107 12.4236 9.69317 10.5955 11.4772 10.2981L11.4114 9.90355ZM11.6443 14.045V10.1008H11.2443V14.045H11.6443ZM11.7409 14.2499C11.6761 14.1916 11.6443 14.1174 11.6443 14.045H11.2443C11.2443 14.238 11.3298 14.418 11.4733 14.5472L11.7409 14.2499Z" fill="#333132"/>
</svg>
